<?xml version="1.0" encoding="utf-8"?>
<!-- Generator: Adobe Illustrator 15.1.0, SVG Export Plug-In . SVG Version: 6.00 Build 0)  -->
<!DOCTYPE svg PUBLIC "-//W3C//DTD SVG 1.1//EN" "http://www.w3.org/Graphics/SVG/1.1/DTD/svg11.dtd">
<svg version="1.1" id="Ebene_1" xmlns="http://www.w3.org/2000/svg" xmlns:xlink="http://www.w3.org/1999/xlink" x="0px" y="0px"
	 width="210px" height="55px" viewBox="0 0 210 55" style="enable-background:new 0 0 210 55;" xml:space="preserve">
<style type="text/css">
<![CDATA[
	.st0{fill:#1268B3;}
	.st1{fill:#8E979D;}
	.st2{fill:#FFFFFF;}
]]>
</style>
<g>
	<path class="st1" d="M106.6,35.5c0,0.4,0.1,0.7,0.2,1c0.1,0.3,0.2,0.5,0.4,0.6c0.1,0.2,0.3,0.3,0.5,0.3c0.2,0.1,0.4,0.1,0.5,0.1
		c0.4,0,0.8-0.1,1.1-0.2c0.3-0.1,0.6-0.3,0.9-0.6l0.4,1.1c-0.2,0.2-0.5,0.3-0.9,0.5c-0.4,0.2-0.9,0.2-1.5,0.2
		c-0.6,0-1.1-0.1-1.6-0.3c-0.4-0.2-0.7-0.5-1-0.8c-0.2-0.3-0.4-0.7-0.5-1.1c-0.1-0.4-0.1-0.8-0.1-1.3c0-0.4,0.1-0.8,0.2-1.2
		c0.1-0.4,0.3-0.7,0.5-1.1c0.2-0.3,0.5-0.6,0.9-0.8c0.4-0.2,0.8-0.3,1.3-0.3c0.5,0,1,0.1,1.3,0.3c0.4,0.2,0.7,0.4,0.9,0.7
		c0.2,0.3,0.4,0.6,0.5,1c0.1,0.4,0.2,0.7,0.2,1.1v0.6H106.6z"/>
	<path class="st1" d="M117.8,38.1c0,0.4,0,0.8-0.1,1.2c-0.1,0.4-0.3,0.7-0.5,1c-0.2,0.3-0.6,0.5-1,0.7c-0.4,0.2-0.9,0.3-1.5,0.3
		c-0.6,0-1.1-0.1-1.5-0.2c-0.4-0.1-0.7-0.3-0.9-0.4l0.5-1.1c0.2,0.2,0.5,0.3,0.8,0.5c0.3,0.2,0.7,0.2,1.1,0.2c0.3,0,0.6,0,0.8-0.1
		c0.2-0.1,0.4-0.2,0.5-0.4c0.1-0.2,0.2-0.4,0.2-0.7c0-0.3,0.1-0.6,0.1-1v-0.5c-0.1,0.1-0.2,0.2-0.3,0.3c-0.1,0.1-0.2,0.2-0.3,0.3
		c-0.1,0.1-0.3,0.1-0.4,0.2c-0.2,0.1-0.3,0.1-0.5,0.1c-0.4,0-0.8-0.1-1.1-0.2c-0.3-0.1-0.6-0.3-0.9-0.6c-0.2-0.3-0.4-0.6-0.6-1
		c-0.1-0.4-0.2-0.9-0.2-1.5c0-0.5,0.1-1,0.2-1.4c0.2-0.4,0.3-0.8,0.6-1c0.2-0.3,0.5-0.5,0.8-0.6c0.3-0.1,0.6-0.2,1-0.2
		c0.5,0,0.8,0.1,1.1,0.3c0.3,0.2,0.5,0.5,0.7,0.9l0.1-0.9h0.3h0.4h0.4h0.3V38.1z"/>
	<path class="st1" d="M128.4,38.4l-0.1-0.8c-0.2,0.3-0.5,0.5-0.8,0.7c-0.3,0.2-0.6,0.3-1,0.3c-0.6,0-1.1-0.2-1.5-0.4
		c-0.4-0.3-0.6-0.7-0.6-1.4c0-0.4,0.1-0.8,0.3-1c0.2-0.3,0.5-0.5,0.8-0.6c0.3-0.2,0.7-0.3,1.1-0.3c0.4-0.1,0.7-0.1,1.1-0.1l0.5,0
		v-0.5c0-0.4-0.1-0.7-0.3-1c-0.2-0.2-0.4-0.3-0.8-0.3c-0.4,0-0.7,0.1-1,0.2c-0.3,0.2-0.6,0.3-0.8,0.5l-0.5-1
		c0.1-0.1,0.2-0.1,0.3-0.2c0.2-0.1,0.3-0.2,0.5-0.2c0.2-0.1,0.4-0.1,0.7-0.2c0.3-0.1,0.5-0.1,0.8-0.1c0.9,0,1.5,0.2,1.9,0.6
		c0.4,0.4,0.6,1,0.6,1.8v3.2c0,0.1,0,0.2,0,0.4c0,0.2,0,0.4,0.1,0.7H128.4z"/>
	<path class="st1" d="M145.8,35.2c0,0.5-0.1,0.9-0.2,1.3c-0.1,0.4-0.3,0.8-0.5,1.1c-0.2,0.3-0.6,0.6-0.9,0.7
		c-0.4,0.2-0.8,0.3-1.4,0.3c-1,0-1.8-0.3-2.3-0.9c-0.5-0.6-0.7-1.4-0.7-2.5c0-0.4,0.1-0.8,0.2-1.2c0.1-0.4,0.3-0.8,0.5-1.1
		c0.2-0.3,0.6-0.5,0.9-0.7c0.4-0.2,0.8-0.3,1.4-0.3c0.5,0,1,0.1,1.4,0.2c0.4,0.2,0.7,0.4,0.9,0.7c0.2,0.3,0.4,0.6,0.5,1
		C145.7,34.2,145.8,34.7,145.8,35.2"/>
	<path class="st1" d="M162.7,38.4l-0.1-0.8c-0.1,0.1-0.2,0.2-0.3,0.3c-0.1,0.1-0.2,0.2-0.4,0.3c-0.1,0.1-0.3,0.2-0.5,0.2
		c-0.2,0.1-0.4,0.1-0.6,0.1c-0.4,0-0.8-0.1-1.1-0.2c-0.3-0.1-0.6-0.3-0.9-0.6c-0.3-0.3-0.5-0.6-0.6-1.1c-0.1-0.4-0.2-0.9-0.2-1.5
		c0-0.5,0.1-1,0.2-1.4c0.2-0.4,0.3-0.8,0.6-1c0.2-0.3,0.5-0.5,0.8-0.6c0.3-0.1,0.6-0.2,1-0.2c0.4,0,0.8,0.1,1.1,0.3
		c0.3,0.2,0.5,0.5,0.7,0.8v-3.5h1.6v8.9H162.7z"/>
	<path class="st1" d="M96,46.9c0,0.7-0.1,1.3-0.2,1.8c-0.1,0.5-0.4,1-0.6,1.4c-0.3,0.4-0.6,0.7-1,0.9c-0.4,0.2-0.8,0.4-1.2,0.5
		l0.1,0.2c0.1,0.2,0.3,0.4,0.5,0.4c0.2,0.1,0.4,0.1,0.7,0.1h1.5v1.2h-1.5c-0.4,0-0.8,0-1.1-0.1c-0.3-0.1-0.6-0.2-0.8-0.3
		c-0.2-0.1-0.4-0.3-0.6-0.5c-0.2-0.2-0.3-0.4-0.4-0.7l-0.1-0.3c-0.5-0.1-0.9-0.3-1.3-0.6c-0.4-0.3-0.7-0.6-0.9-1
		c-0.2-0.4-0.4-0.9-0.5-1.4c-0.1-0.5-0.2-1.1-0.2-1.6c0-0.8,0.1-1.5,0.3-2c0.2-0.6,0.5-1.1,0.9-1.4c0.4-0.4,0.8-0.7,1.3-0.8
		c0.5-0.2,1-0.3,1.5-0.3c0.5,0,1,0.1,1.5,0.3c0.5,0.2,0.9,0.4,1.2,0.8c0.4,0.4,0.6,0.8,0.8,1.4C95.9,45.4,96,46.1,96,46.9"/>
	<path class="st1" d="M108.7,51.4l-0.1-0.8c-0.2,0.3-0.5,0.5-0.8,0.7c-0.3,0.2-0.6,0.3-1,0.3c-0.6,0-1.1-0.1-1.5-0.4
		c-0.4-0.3-0.6-0.7-0.6-1.3c0-0.4,0.1-0.8,0.3-1c0.2-0.3,0.5-0.5,0.8-0.6c0.3-0.2,0.7-0.3,1.1-0.3c0.4-0.1,0.7-0.1,1.1-0.1l0.5,0
		v-0.5c0-0.4-0.1-0.7-0.3-1c-0.2-0.2-0.4-0.3-0.8-0.3c-0.4,0-0.7,0.1-1,0.2c-0.3,0.2-0.6,0.3-0.8,0.5l-0.5-1
		c0.1-0.1,0.2-0.1,0.3-0.2s0.3-0.2,0.5-0.2c0.2-0.1,0.4-0.1,0.7-0.2c0.3-0.1,0.5-0.1,0.8-0.1c0.9,0,1.5,0.2,1.9,0.6
		c0.4,0.4,0.6,1,0.6,1.7v3.2c0,0.1,0,0.2,0,0.4c0,0.2,0,0.4,0.1,0.7H108.7z"/>
	<path class="st1" d="M139.4,48.5c0,0.4,0.1,0.7,0.2,1c0.1,0.3,0.2,0.5,0.4,0.6c0.1,0.2,0.3,0.3,0.5,0.4c0.2,0.1,0.4,0.1,0.5,0.1
		c0.4,0,0.8-0.1,1.1-0.2c0.3-0.1,0.6-0.3,0.9-0.6l0.4,1.1c-0.2,0.2-0.5,0.3-0.9,0.5s-0.9,0.2-1.5,0.2c-0.6,0-1.1-0.1-1.6-0.3
		c-0.4-0.2-0.7-0.5-1-0.8c-0.2-0.3-0.4-0.7-0.5-1.1c-0.1-0.4-0.1-0.8-0.1-1.3c0-0.4,0.1-0.8,0.2-1.2c0.1-0.4,0.3-0.7,0.5-1.1
		c0.2-0.3,0.5-0.6,0.9-0.8c0.4-0.2,0.8-0.3,1.3-0.3c0.5,0,1,0.1,1.3,0.3c0.4,0.2,0.7,0.4,0.9,0.7c0.2,0.3,0.4,0.6,0.5,1
		c0.1,0.4,0.2,0.7,0.2,1.1v0.6H139.4z"/>
	<path class="st1" d="M171.2,51c0,0.4,0,0.8-0.1,1.2c-0.1,0.4-0.3,0.7-0.5,1c-0.2,0.3-0.6,0.5-1,0.7c-0.4,0.2-0.9,0.3-1.5,0.3
		c-0.6,0-1.1-0.1-1.5-0.2c-0.4-0.1-0.7-0.3-0.9-0.4l0.5-1.1c0.2,0.2,0.5,0.3,0.8,0.5c0.3,0.2,0.7,0.2,1.1,0.2c0.3,0,0.6,0,0.8-0.1
		c0.2-0.1,0.4-0.2,0.5-0.4c0.1-0.2,0.2-0.4,0.3-0.7c0-0.3,0.1-0.6,0.1-1v-0.5c-0.1,0.1-0.2,0.2-0.3,0.3c-0.1,0.1-0.2,0.2-0.3,0.3
		c-0.1,0.1-0.3,0.1-0.4,0.2c-0.2,0.1-0.3,0.1-0.5,0.1c-0.4,0-0.8-0.1-1.1-0.2c-0.3-0.1-0.6-0.3-0.9-0.6c-0.3-0.3-0.4-0.6-0.6-1
		c-0.1-0.4-0.2-0.9-0.2-1.5c0-0.5,0.1-1,0.2-1.4c0.1-0.4,0.3-0.8,0.6-1c0.2-0.3,0.5-0.5,0.8-0.6c0.3-0.1,0.6-0.2,1-0.2
		c0.5,0,0.8,0.1,1.1,0.3c0.3,0.2,0.5,0.5,0.7,0.9l0.1-0.9h0.3h0.4h0.4h0.3V51z"/>
	<path class="st1" d="M112.1,13.6c0,0.8,0.2,1.5,0.4,2.1c0.2,0.6,0.5,1,0.8,1.3c0.3,0.3,0.6,0.6,1,0.7c0.4,0.1,0.8,0.2,1.1,0.2
		c0.9,0,1.7-0.1,2.3-0.4c0.7-0.3,1.3-0.7,1.9-1.2l0.9,2.2c-0.5,0.4-1.1,0.7-2,1c-0.9,0.3-1.9,0.5-3.2,0.5c-1.3,0-2.4-0.2-3.3-0.6
		c-0.9-0.4-1.5-0.9-2-1.6c-0.5-0.7-0.8-1.4-1.1-2.3c-0.2-0.9-0.3-1.7-0.3-2.7c0-0.8,0.1-1.6,0.3-2.5c0.2-0.8,0.6-1.6,1.1-2.2
		c0.5-0.7,1.1-1.2,1.9-1.6c0.8-0.4,1.7-0.6,2.8-0.6c1.1,0,2,0.2,2.8,0.6c0.8,0.4,1.4,0.9,1.9,1.5c0.5,0.6,0.8,1.3,1,2.1
		c0.2,0.8,0.3,1.5,0.3,2.3v1.2H112.1z"/>
	<path class="st1" d="M173,13.6c0,0.8,0.2,1.5,0.4,2.1c0.2,0.6,0.5,1,0.8,1.3c0.3,0.3,0.6,0.6,1,0.7c0.4,0.1,0.8,0.2,1.1,0.2
		c0.9,0,1.7-0.1,2.3-0.4c0.7-0.3,1.3-0.7,1.9-1.2l0.9,2.2c-0.5,0.4-1.1,0.7-2,1c-0.9,0.3-1.9,0.5-3.2,0.5c-1.3,0-2.4-0.2-3.3-0.6
		c-0.9-0.4-1.5-0.9-2-1.6c-0.5-0.7-0.8-1.4-1.1-2.3c-0.2-0.9-0.3-1.7-0.3-2.7c0-0.8,0.1-1.6,0.3-2.5c0.2-0.8,0.6-1.6,1.1-2.2
		c0.5-0.7,1.1-1.2,1.9-1.6c0.8-0.4,1.7-0.6,2.8-0.6c1.1,0,2,0.2,2.8,0.6c0.8,0.4,1.4,0.9,1.9,1.5c0.5,0.6,0.8,1.3,1,2.1
		c0.2,0.8,0.3,1.5,0.3,2.3v1.2H173z"/>
	<rect x="1" y="15.3" class="st1" width="12" height="34.7"/>
	<rect x="1" y="1.1" class="st0" width="12" height="12"/>
	<path class="st1" d="M50.7,29.4c0.4-1.2,0.6-2.5,0.6-3.8c0-6.9-5.6-12.4-12.4-12.4c-6.9,0-12.4,5.6-12.4,12.4
		C26.5,32.5,32,38,38.9,38c0.7,0,1.3,0,1.9-0.1c2.1,3.2,5.5,7.6,7.4,10.2c-2.9,1.2-6,1.9-9.3,1.9c-13.4,0-24.3-10.9-24.3-24.3
		c0-13.4,10.9-24.3,24.3-24.3c13.4,0,24.3,10.9,24.3,24.3c0,4.7-1.3,9-3.6,12.7C59.4,38.6,52.7,31.3,50.7,29.4"/>
	<path class="st1" d="M44.8,26.1C57.3,39.3,66.5,49,68.6,51H52.4c0,0-3.7-7.2-14.1-18.7C42.1,28.1,44.6,26.3,44.8,26.1"/>
	<rect x="75.3" y="0.8" class="st0" width="1.9" height="50.3"/>
	<rect x="89.1" y="29.5" class="st1" width="1.7" height="8.9"/>
	<path class="st1" d="M97.1,38.4v-4.1c0-0.4-0.1-0.7-0.3-1c-0.2-0.3-0.5-0.4-0.9-0.4c-0.2,0-0.4,0-0.6,0.1c-0.2,0.1-0.3,0.2-0.4,0.4
		c-0.1,0.2-0.2,0.3-0.3,0.5c-0.1,0.2-0.1,0.3-0.1,0.4v4.1h-1.6v-6.3h1.4l0.1,0.9c0.1-0.1,0.2-0.3,0.3-0.4c0.1-0.1,0.3-0.3,0.4-0.4
		c0.2-0.1,0.3-0.2,0.5-0.3c0.2-0.1,0.4-0.1,0.7-0.1c0.7,0,1.2,0.2,1.6,0.6c0.4,0.4,0.6,0.9,0.6,1.6v4.4H97.1z"/>
	<path class="st1" d="M104.1,38.2c-0.1,0.1-0.3,0.2-0.6,0.2s-0.5,0.1-0.7,0.1c-0.4,0-0.7,0-1-0.1c-0.2-0.1-0.4-0.2-0.6-0.4
		c-0.1-0.2-0.2-0.3-0.3-0.6c-0.1-0.2-0.1-0.5-0.1-0.7v-3.6h-1v-1.1h1v-1.3l1.6-0.4v1.7h1.5v1.1h-1.5v3.4c0,0.3,0.1,0.5,0.2,0.7
		c0.1,0.1,0.3,0.2,0.5,0.2c0.2,0,0.3,0,0.4-0.1c0.1-0.1,0.2-0.1,0.3-0.2L104.1,38.2z"/>
	<path class="st2" d="M109.2,34.5c0-0.2,0-0.5-0.1-0.7c0-0.2-0.1-0.4-0.2-0.6c-0.1-0.2-0.2-0.3-0.4-0.4c-0.2-0.1-0.4-0.1-0.6-0.1
		c-0.2,0-0.4,0-0.6,0.1c-0.2,0.1-0.3,0.2-0.4,0.4c-0.1,0.2-0.2,0.3-0.2,0.5c-0.1,0.2-0.1,0.4-0.1,0.7H109.2z"/>
	<path class="st2" d="M116.3,34.4c0-0.1,0-0.3-0.1-0.4c-0.1-0.2-0.1-0.3-0.2-0.5c-0.1-0.2-0.2-0.3-0.4-0.4c-0.2-0.1-0.3-0.2-0.6-0.2
		c-0.3,0-0.5,0.1-0.7,0.2c-0.2,0.1-0.3,0.3-0.4,0.5c-0.1,0.2-0.2,0.5-0.2,0.7c0,0.3-0.1,0.5-0.1,0.8c0,0.7,0.1,1.2,0.3,1.6
		c0.2,0.4,0.6,0.6,1.1,0.6c0.2,0,0.4,0,0.6-0.1c0.2-0.1,0.3-0.2,0.4-0.3c0.1-0.1,0.2-0.3,0.2-0.4c0-0.2,0.1-0.3,0.1-0.4V34.4z"/>
	<path class="st1" d="M123.9,33.4c-0.1-0.1-0.2-0.1-0.4-0.2c-0.2-0.1-0.4-0.1-0.6-0.1c-0.3,0-0.5,0-0.7,0.1
		c-0.2,0.1-0.3,0.2-0.5,0.3c-0.1,0.1-0.2,0.3-0.3,0.5c-0.1,0.2-0.1,0.4-0.1,0.5v3.9h-1.6v-6.3h1.4l0.1,0.9c0.1-0.1,0.2-0.3,0.3-0.4
		c0.1-0.1,0.2-0.3,0.4-0.4c0.1-0.1,0.3-0.2,0.5-0.3c0.2-0.1,0.4-0.1,0.7-0.1c0.2,0,0.5,0,0.7,0.1c0.2,0.1,0.4,0.2,0.5,0.2
		L123.9,33.4z"/>
	<path class="st2" d="M128.2,35.5l-0.5,0c-0.5,0-0.9,0.2-1.2,0.4c-0.3,0.2-0.5,0.5-0.5,0.9c0,0.1,0,0.2,0,0.3c0,0.1,0.1,0.2,0.1,0.3
		c0.1,0.1,0.2,0.2,0.3,0.2c0.1,0.1,0.3,0.1,0.4,0.1c0.2,0,0.4,0,0.5-0.1c0.2-0.1,0.3-0.2,0.4-0.3c0.1-0.1,0.2-0.2,0.2-0.3
		c0-0.1,0.1-0.2,0.1-0.3V35.5z"/>
	<path class="st1" d="M135.1,38.2c-0.1,0.1-0.3,0.2-0.6,0.2s-0.5,0.1-0.7,0.1c-0.4,0-0.7,0-0.9-0.1c-0.3-0.1-0.4-0.2-0.6-0.4
		c-0.1-0.2-0.2-0.3-0.3-0.6c-0.1-0.2-0.1-0.5-0.1-0.7v-3.6h-1v-1.1h1v-1.3l1.6-0.4v1.7h1.5v1.1h-1.5v3.4c0,0.3,0.1,0.5,0.2,0.7
		c0.1,0.1,0.3,0.2,0.5,0.2c0.2,0,0.3,0,0.4-0.1c0.1-0.1,0.2-0.1,0.3-0.2L135.1,38.2z"/>
	<rect x="136.5" y="32.1" class="st1" width="1.6" height="6.3"/>
	<path class="st1" d="M138.2,30c0,0.1,0,0.2-0.1,0.4c-0.1,0.1-0.1,0.2-0.2,0.3c-0.1,0.1-0.2,0.2-0.3,0.2c-0.1,0-0.2,0.1-0.3,0.1
		c-0.2,0-0.4-0.1-0.6-0.3c-0.2-0.2-0.3-0.4-0.3-0.7c0-0.1,0-0.2,0.1-0.4c0-0.1,0.1-0.2,0.2-0.3c0.1-0.1,0.2-0.1,0.3-0.2
		c0.1,0,0.2-0.1,0.3-0.1c0.2,0,0.4,0.1,0.6,0.3C138.1,29.5,138.2,29.7,138.2,30"/>
	<path class="st2" d="M144.1,35.2c0-0.4,0-0.7-0.1-1c-0.1-0.3-0.1-0.5-0.2-0.7c-0.1-0.2-0.2-0.4-0.4-0.5c-0.2-0.1-0.4-0.2-0.6-0.2
		c-0.2,0-0.5,0.1-0.6,0.2c-0.2,0.1-0.3,0.3-0.4,0.5c-0.1,0.2-0.2,0.5-0.2,0.7c0,0.3-0.1,0.6-0.1,0.9c0,0.8,0.1,1.4,0.3,1.8
		c0.2,0.4,0.6,0.6,1.1,0.6c0.3,0,0.5-0.1,0.7-0.2c0.2-0.1,0.3-0.3,0.4-0.5c0.1-0.2,0.2-0.5,0.2-0.8
		C144.1,35.8,144.1,35.5,144.1,35.2"/>
	<path class="st1" d="M151.4,38.4v-4.1c0-0.4-0.1-0.7-0.3-1c-0.2-0.3-0.5-0.4-0.9-0.4c-0.2,0-0.4,0-0.6,0.1
		c-0.2,0.1-0.3,0.2-0.4,0.4c-0.1,0.2-0.2,0.3-0.3,0.5c-0.1,0.2-0.1,0.3-0.1,0.4v4.1h-1.6v-6.3h1.4l0.1,0.9c0.1-0.1,0.2-0.3,0.3-0.4
		c0.1-0.1,0.3-0.3,0.4-0.4c0.2-0.1,0.3-0.2,0.5-0.3c0.2-0.1,0.4-0.1,0.7-0.1c0.7,0,1.2,0.2,1.6,0.6c0.4,0.4,0.6,0.9,0.6,1.6v4.4
		H151.4z"/>
	<path class="st2" d="M162.5,34.4c0-0.1,0-0.3-0.1-0.4c-0.1-0.2-0.1-0.3-0.2-0.5c-0.1-0.2-0.2-0.3-0.4-0.4c-0.2-0.1-0.3-0.2-0.6-0.2
		c-0.3,0-0.5,0.1-0.7,0.2c-0.2,0.1-0.3,0.3-0.4,0.5c-0.1,0.2-0.2,0.5-0.3,0.7c0,0.3-0.1,0.5-0.1,0.8c0,0.3,0,0.7,0.1,0.9
		c0,0.3,0.1,0.5,0.2,0.8c0.1,0.2,0.3,0.4,0.4,0.5c0.2,0.1,0.4,0.2,0.7,0.2c0.2,0,0.4,0,0.6-0.1c0.2-0.1,0.3-0.2,0.4-0.3
		c0.1-0.1,0.2-0.3,0.2-0.4c0.1-0.2,0.1-0.3,0.1-0.4V34.4z"/>
	<path class="st1" d="M170.2,38.4l-0.1-0.9c-0.1,0.1-0.2,0.2-0.3,0.3c-0.1,0.1-0.3,0.2-0.4,0.3c-0.2,0.1-0.3,0.2-0.5,0.3
		c-0.2,0.1-0.4,0.1-0.7,0.1c-0.7,0-1.2-0.2-1.6-0.6c-0.4-0.4-0.6-0.9-0.6-1.5v-4.4h1.6v4.1c0,0.4,0.1,0.7,0.3,0.9
		c0.2,0.2,0.5,0.4,0.8,0.4c0.2,0,0.4,0,0.6-0.1c0.2-0.1,0.3-0.2,0.4-0.3c0.1-0.1,0.2-0.3,0.2-0.4c0.1-0.1,0.1-0.3,0.1-0.4v-4.1h1.6
		v6.3H170.2z"/>
	<path class="st1" d="M177.6,33.4c-0.1-0.1-0.2-0.1-0.4-0.2c-0.2-0.1-0.4-0.1-0.6-0.1c-0.3,0-0.5,0-0.7,0.1
		c-0.2,0.1-0.4,0.2-0.5,0.3c-0.1,0.1-0.2,0.3-0.3,0.5c-0.1,0.2-0.1,0.4-0.1,0.5v3.9h-1.6v-6.3h1.4l0.1,0.9c0.1-0.1,0.2-0.3,0.3-0.4
		c0.1-0.1,0.2-0.3,0.4-0.4c0.1-0.1,0.3-0.2,0.5-0.3c0.2-0.1,0.4-0.1,0.7-0.1c0.2,0,0.5,0,0.7,0.1c0.2,0.1,0.4,0.2,0.5,0.2
		L177.6,33.4z"/>
	<path class="st1" d="M183.9,37.9c-0.2,0.2-0.5,0.3-0.8,0.5c-0.3,0.1-0.8,0.2-1.4,0.2c-0.6,0-1-0.1-1.4-0.3c-0.4-0.2-0.8-0.4-1-0.7
		c-0.3-0.3-0.5-0.7-0.6-1.1c-0.1-0.4-0.2-0.9-0.2-1.4c0-0.4,0.1-0.8,0.2-1.2c0.1-0.4,0.3-0.8,0.6-1.1c0.3-0.3,0.6-0.6,1-0.7
		c0.4-0.2,0.9-0.3,1.4-0.3c0.5,0,0.9,0.1,1.3,0.2c0.4,0.1,0.6,0.3,0.8,0.4l-0.4,1.1c-0.1-0.1-0.2-0.2-0.3-0.3
		c-0.1-0.1-0.2-0.2-0.4-0.2c-0.1-0.1-0.3-0.1-0.5-0.2c-0.2,0-0.4-0.1-0.6-0.1c-0.2,0-0.5,0.1-0.7,0.2c-0.2,0.1-0.4,0.3-0.5,0.5
		c-0.1,0.2-0.3,0.4-0.3,0.7c-0.1,0.3-0.1,0.6-0.1,0.9c0,0.7,0.1,1.3,0.4,1.7c0.3,0.4,0.7,0.7,1.2,0.7c0.2,0,0.4,0,0.6-0.1
		c0.2,0,0.3-0.1,0.5-0.2c0.1-0.1,0.3-0.1,0.4-0.2c0.1-0.1,0.2-0.2,0.4-0.3L183.9,37.9z"/>
	<path class="st1" d="M189.4,38.4v-4.1c0-0.4-0.1-0.7-0.3-1c-0.2-0.3-0.5-0.4-0.9-0.4c-0.2,0-0.4,0-0.6,0.1
		c-0.2,0.1-0.3,0.2-0.4,0.4c-0.1,0.2-0.2,0.3-0.3,0.5c-0.1,0.2-0.1,0.3-0.1,0.4v4.1h-1.6v-8.9h1.6v3.4c0.1-0.1,0.1-0.2,0.2-0.3
		c0.1-0.1,0.2-0.2,0.4-0.3c0.2-0.1,0.3-0.2,0.5-0.3c0.2-0.1,0.4-0.1,0.7-0.1c0.7,0,1.2,0.2,1.6,0.6c0.4,0.4,0.6,0.9,0.6,1.6v4.4
		H189.4z"/>
	<path class="st2" d="M94.3,46.9c0-0.5,0-0.9-0.1-1.3c-0.1-0.4-0.2-0.8-0.3-1.1c-0.2-0.3-0.4-0.5-0.7-0.7c-0.3-0.2-0.6-0.3-1.1-0.3
		c-0.4,0-0.8,0.1-1,0.3c-0.3,0.2-0.5,0.5-0.7,0.8c-0.2,0.3-0.3,0.7-0.4,1.1c-0.1,0.4-0.1,0.8-0.1,1.2c0,0.5,0,0.9,0.1,1.3
		c0.1,0.4,0.2,0.8,0.3,1.1c0.2,0.3,0.4,0.6,0.7,0.8c0.3,0.2,0.7,0.3,1.1,0.3c0.4,0,0.8-0.1,1.1-0.3c0.3-0.2,0.5-0.4,0.7-0.7
		c0.2-0.3,0.3-0.7,0.3-1.1C94.2,47.8,94.3,47.4,94.3,46.9"/>
	<path class="st1" d="M101.9,51.4l-0.1-0.9c-0.1,0.1-0.2,0.2-0.3,0.3c-0.1,0.1-0.3,0.2-0.4,0.3c-0.2,0.1-0.3,0.2-0.5,0.3
		c-0.2,0.1-0.4,0.1-0.7,0.1c-0.7,0-1.2-0.2-1.6-0.6c-0.4-0.4-0.6-0.9-0.6-1.5v-4.4h1.6v4.1c0,0.4,0.1,0.7,0.3,0.9
		c0.2,0.2,0.5,0.4,0.8,0.4c0.2,0,0.4,0,0.6-0.1c0.2-0.1,0.3-0.2,0.4-0.3c0.1-0.1,0.2-0.3,0.2-0.4c0.1-0.2,0.1-0.3,0.1-0.4v-4.1h1.6
		v6.3H101.9z"/>
	<path class="st2" d="M108.5,48.4l-0.5,0c-0.5,0-0.9,0.2-1.2,0.4c-0.3,0.2-0.5,0.5-0.5,0.9c0,0.1,0,0.2,0,0.3c0,0.1,0.1,0.2,0.1,0.3
		c0.1,0.1,0.2,0.2,0.3,0.2c0.1,0.1,0.3,0.1,0.5,0.1c0.2,0,0.4,0,0.5-0.1c0.2-0.1,0.3-0.2,0.4-0.3c0.1-0.1,0.2-0.2,0.2-0.3
		c0-0.1,0.1-0.2,0.1-0.3V48.4z"/>
	<rect x="112.1" y="42.5" class="st1" width="1.6" height="8.9"/>
	<rect x="115.8" y="45.1" class="st1" width="1.6" height="6.3"/>
	<path class="st1" d="M117.5,43c0,0.1,0,0.2-0.1,0.4c-0.1,0.1-0.1,0.2-0.2,0.3c-0.1,0.1-0.2,0.1-0.3,0.2c-0.1,0-0.2,0.1-0.3,0.1
		c-0.2,0-0.4-0.1-0.6-0.3c-0.2-0.2-0.3-0.4-0.3-0.6c0-0.1,0-0.2,0.1-0.4c0-0.1,0.1-0.2,0.2-0.3c0.1-0.1,0.2-0.1,0.3-0.2
		c0.1,0,0.2-0.1,0.3-0.1c0.2,0,0.4,0.1,0.6,0.3C117.4,42.5,117.5,42.7,117.5,43"/>
	<path class="st1" d="M123.8,51.4v-5.2h-2.4v5.2h-1.6v-5.2h-1v-1.1h1v-0.4c0-0.4,0.1-0.8,0.3-1.1c0.2-0.3,0.4-0.5,0.7-0.7
		c0.3-0.2,0.6-0.3,1-0.4c0.4-0.1,0.7-0.1,1.1-0.1c0.6,0,1.1,0,1.5,0.1c0.4,0.1,0.7,0.2,0.9,0.3l-0.5,1.1c-0.2-0.1-0.5-0.3-0.8-0.3
		c-0.3-0.1-0.7-0.1-1.1-0.1c-0.5,0-0.8,0.1-1.1,0.3c-0.2,0.2-0.4,0.5-0.4,0.9v0.4h4v6.3H123.8z"/>
	<polygon class="st1" points="127,51.4 127,50.7 130.5,46.2 127.2,46.2 127.2,45.1 132.7,45.1 132.7,45.8 129.2,50.3 132.8,50.3 
		132.8,51.4 	"/>
	<rect x="134.5" y="45.1" class="st1" width="1.6" height="6.3"/>
	<path class="st1" d="M136.2,43c0,0.1,0,0.2-0.1,0.4c-0.1,0.1-0.1,0.2-0.2,0.3c-0.1,0.1-0.2,0.1-0.3,0.2c-0.1,0-0.2,0.1-0.3,0.1
		c-0.2,0-0.4-0.1-0.6-0.3c-0.2-0.2-0.3-0.4-0.3-0.6c0-0.1,0-0.2,0.1-0.4c0-0.1,0.1-0.2,0.2-0.3c0.1-0.1,0.2-0.1,0.3-0.2
		c0.1,0,0.2-0.1,0.3-0.1c0.2,0,0.4,0.1,0.6,0.3C136.1,42.5,136.2,42.7,136.2,43"/>
	<path class="st2" d="M142,47.5c0-0.2,0-0.5-0.1-0.7c-0.1-0.2-0.1-0.4-0.2-0.6c-0.1-0.2-0.2-0.3-0.4-0.4c-0.2-0.1-0.4-0.1-0.6-0.1
		c-0.2,0-0.4,0-0.6,0.1c-0.2,0.1-0.3,0.2-0.4,0.4s-0.2,0.3-0.2,0.6c-0.1,0.2-0.1,0.4-0.1,0.7H142z"/>
	<path class="st1" d="M149.1,46.4c-0.1-0.1-0.2-0.1-0.4-0.2c-0.2-0.1-0.4-0.1-0.6-0.1c-0.3,0-0.5,0-0.7,0.1
		c-0.2,0.1-0.3,0.2-0.5,0.3c-0.1,0.1-0.2,0.3-0.3,0.5c-0.1,0.2-0.1,0.4-0.1,0.5v3.9h-1.6v-6.3h1.4l0.1,0.9c0.1-0.1,0.2-0.3,0.3-0.4
		c0.1-0.1,0.2-0.3,0.4-0.4c0.1-0.1,0.3-0.2,0.5-0.3c0.2-0.1,0.4-0.1,0.7-0.1c0.2,0,0.5,0.1,0.7,0.2c0.2,0.1,0.4,0.2,0.5,0.2
		L149.1,46.4z"/>
	<path class="st1" d="M154.7,51.4l-0.1-0.9c-0.1,0.1-0.2,0.2-0.3,0.3c-0.1,0.1-0.3,0.2-0.4,0.3c-0.2,0.1-0.3,0.2-0.5,0.3
		c-0.2,0.1-0.4,0.1-0.7,0.1c-0.7,0-1.2-0.2-1.6-0.6c-0.4-0.4-0.6-0.9-0.6-1.5v-4.4h1.6v4.1c0,0.4,0.1,0.7,0.3,0.9
		c0.2,0.2,0.5,0.4,0.8,0.4c0.2,0,0.4,0,0.6-0.1c0.2-0.1,0.3-0.2,0.4-0.3c0.1-0.1,0.2-0.3,0.2-0.4c0.1-0.2,0.1-0.3,0.1-0.4v-4.1h1.6
		v6.3H154.7z"/>
	<path class="st1" d="M162.1,51.4v-4.1c0-0.4-0.1-0.7-0.3-1c-0.2-0.3-0.5-0.4-0.9-0.4c-0.2,0-0.4,0-0.6,0.2
		c-0.2,0.1-0.3,0.2-0.4,0.4c-0.1,0.2-0.2,0.3-0.3,0.5c-0.1,0.2-0.1,0.3-0.1,0.4v4.1h-1.6v-6.3h1.4l0.1,0.9c0.1-0.1,0.2-0.3,0.3-0.4
		c0.1-0.1,0.3-0.3,0.4-0.4c0.2-0.1,0.3-0.2,0.5-0.3c0.2-0.1,0.4-0.1,0.7-0.1c0.7,0,1.2,0.2,1.6,0.6c0.4,0.4,0.6,0.9,0.6,1.6v4.4
		H162.1z"/>
	<path class="st2" d="M169.7,47.4c0-0.1,0-0.3-0.1-0.4c-0.1-0.2-0.1-0.3-0.3-0.5c-0.1-0.2-0.2-0.3-0.4-0.4c-0.2-0.1-0.3-0.2-0.6-0.2
		c-0.3,0-0.5,0.1-0.7,0.2c-0.2,0.1-0.3,0.3-0.5,0.5c-0.1,0.2-0.2,0.5-0.2,0.7c0,0.3-0.1,0.5-0.1,0.8c0,0.7,0.1,1.2,0.3,1.6
		c0.2,0.4,0.6,0.6,1.1,0.6c0.2,0,0.4,0,0.6-0.1c0.2-0.1,0.3-0.2,0.4-0.3c0.1-0.1,0.2-0.3,0.2-0.4c0.1-0.2,0.1-0.3,0.1-0.4V47.4z"/>
	<polygon class="st1" points="100.3,19.7 92.5,5.8 92.5,19.7 89.1,19.7 89.1,1 93.6,1 101.4,14.9 101.4,1 104.8,1 104.8,19.7 	"/>
	<path class="st2" d="M117.5,11.6c0-0.5-0.1-1-0.2-1.4c-0.1-0.4-0.3-0.8-0.5-1.2c-0.2-0.3-0.5-0.6-0.9-0.8c-0.3-0.2-0.7-0.3-1.2-0.3
		c-0.5,0-0.9,0.1-1.2,0.3c-0.3,0.2-0.6,0.5-0.8,0.8c-0.2,0.3-0.4,0.7-0.5,1.2c-0.1,0.4-0.2,0.9-0.2,1.4H117.5z"/>
	<path class="st1" d="M131.2,19.3c-0.3,0.2-0.7,0.3-1.2,0.5c-0.5,0.2-1,0.2-1.4,0.2c-0.8,0-1.5-0.1-2-0.3c-0.5-0.2-0.9-0.4-1.2-0.7
		c-0.3-0.3-0.5-0.7-0.6-1.2c-0.1-0.5-0.2-1-0.2-1.5V8.8h-2.1V6.5h2.1V3.8l3.3-0.9v3.7h3.1v2.3h-3.1V16c0,0.7,0.1,1.1,0.4,1.4
		c0.2,0.2,0.6,0.4,0.9,0.4c0.3,0,0.6-0.1,0.8-0.2c0.2-0.1,0.5-0.3,0.6-0.4L131.2,19.3z"/>
	<polygon class="st1" points="133.2,19.7 133.2,18.2 140.6,8.9 133.5,8.9 133.5,6.5 145.1,6.5 145.1,8 137.8,17.3 145.3,17.3 
		145.3,19.7 	"/>
	<polygon class="st1" points="163.6,19.7 160.2,19.7 157.6,10.8 154.9,19.7 151.5,19.7 147.2,6.5 150.9,6.5 153.5,16.2 155.9,7.8 
		159.3,7.8 161.8,16.2 164.3,6.5 167.9,6.5 	"/>
	<path class="st2" d="M178.4,11.6c0-0.5-0.1-1-0.2-1.4c-0.1-0.4-0.3-0.8-0.5-1.2c-0.2-0.3-0.5-0.6-0.9-0.8c-0.3-0.2-0.7-0.3-1.2-0.3
		c-0.5,0-0.9,0.1-1.2,0.3c-0.3,0.2-0.6,0.5-0.8,0.8c-0.2,0.3-0.4,0.7-0.5,1.2c-0.1,0.4-0.2,0.9-0.2,1.4H178.4z"/>
	<path class="st1" d="M193.5,9.1c-0.2-0.1-0.4-0.3-0.7-0.5c-0.3-0.2-0.8-0.3-1.3-0.3c-0.5,0-1,0.1-1.4,0.3c-0.4,0.2-0.7,0.4-1,0.7
		c-0.3,0.3-0.5,0.6-0.6,1c-0.1,0.4-0.2,0.7-0.2,1.1v8.2H185V6.5h2.9l0.2,1.9c0.2-0.3,0.4-0.5,0.6-0.8c0.2-0.3,0.5-0.6,0.8-0.8
		c0.3-0.2,0.6-0.5,1.1-0.6c0.4-0.2,0.9-0.2,1.4-0.2c0.5,0,1,0.1,1.5,0.3c0.5,0.2,0.8,0.4,1,0.5L193.5,9.1z"/>
	<polygon class="st1" points="205.1,19.7 199.7,12.7 199.7,19.7 196.4,19.7 196.4,1 199.7,1 199.7,12.7 204.5,6.5 208.3,6.5 
		203.3,12.5 209,19.7 	"/>
</g>
</svg>
