<svg xmlns="http://www.w3.org/2000/svg" viewBox="0 0 288.1 31.6"><path d="M48.6 0a15.76 15.76 0 0 0-14.8 10.3v3.9h4.1v3.1h-4.1v4A15.8 15.8 0 1 0 48.6 0zM56 24.2h-2.9v-7.7c0-4.7-6.9-4.9-6.9 1.4v6.3h-2.9V5.1h2.9V13c3.2-4 9.7-2.9 9.7 3v8.2zM15.8 0a15.8 15.8 0 1 0 14.9 21v-3.7h-4.1v-3.1h4.1v-3.5A15.75 15.75 0 0 0 15.8 0zm4.4 14a3.53 3.53 0 0 0-1.4-.3c-1.7 0-3.2 1.2-3.2 4v6.5h-3V10.8h2.9v2.4a4 4 0 0 1 3.7-2.6 4.78 4.78 0 0 1 1.8.4zM166.9 6.7H165v6.5h-6.5v1.9h6.5v6.5h1.9v-6.5h6.5v-1.9h-6.5V6.7zM96.6 15.1a6.73 6.73 0 0 0 1.5-1.4 5.08 5.08 0 0 0 .9-1.8 7.8 7.8 0 0 0 .3-2.2 6.69 6.69 0 0 0-.5-2.6 5.58 5.58 0 0 0-1.4-2 7.14 7.14 0 0 0-2.3-1.2 10.12 10.12 0 0 0-3.1-.4h-7.9v21h2.8v-8.2h4.9l5.2 8.2h3.1L94.8 16c.5-.3 1.2-.6 1.8-.9zM92 13.8h-5.3V5.9H92a5.82 5.82 0 0 1 1.9.3 3.92 3.92 0 0 1 1.4.8 2.73 2.73 0 0 1 .9 1.2 4.15 4.15 0 0 1 .3 1.6 4.15 4.15 0 0 1-.3 1.6 5.67 5.67 0 0 1-.8 1.3 3.39 3.39 0 0 1-1.4.9 13.55 13.55 0 0 1-2 .2zM111.8 17.1a7.11 7.11 0 0 1-.3 2.1 6 6 0 0 1-.8 1.6 3.05 3.05 0 0 1-1.3 1 4.19 4.19 0 0 1-1.6.4 5.9 5.9 0 0 1-1.4-.2 2.59 2.59 0 0 1-1.1-.7 4 4 0 0 1-.7-1.3 5.55 5.55 0 0 1-.2-1.9V9.6h-2.7v8.8a7.89 7.89 0 0 0 .4 2.8 5.16 5.16 0 0 0 1.2 1.9 4.25 4.25 0 0 0 1.7 1 7.61 7.61 0 0 0 2.1.3 6.8 6.8 0 0 0 1.5-.2 5 5 0 0 0 1.3-.5 3.92 3.92 0 0 0 1-.8 10.47 10.47 0 0 0 .8-1.1h.1v2.5h2.6V9.6h-2.7v7.5zM130.6 11.5a6 6 0 0 0-2.1-1.4 8.12 8.12 0 0 0-4.1-.4 5.73 5.73 0 0 0-1.4.4 7.46 7.46 0 0 0-1.2.7 10.63 10.63 0 0 0-.9 1.1h-.1V9.6h-2.6v21.6h2.7v-7.6a6.6 6.6 0 0 0-.1-1.4h.1a3.13 3.13 0 0 0 .9 1.1 4.13 4.13 0 0 0 1.1.7 5 5 0 0 0 1.3.4 7.57 7.57 0 0 0 1.5.1 8.57 8.57 0 0 0 2.7-.5 8.55 8.55 0 0 0 2.2-1.5 9.74 9.74 0 0 0 1.5-2.4 9.86 9.86 0 0 0 0-6.2 9 9 0 0 0-1.5-2.4zm-1.3 7.6a4.61 4.61 0 0 1-.9 1.7 3.32 3.32 0 0 1-1.4 1 4.31 4.31 0 0 1-3.4.1 4.51 4.51 0 0 1-1.4-1 4.17 4.17 0 0 1-.9-1.6 7.8 7.8 0 0 1-.3-2.2v-.2a4.64 4.64 0 0 1 .4-2.1 3.77 3.77 0 0 1 .9-1.5 7.1 7.1 0 0 1 1.4-1 5 5 0 0 1 3.4 0 3.32 3.32 0 0 1 1.4 1 3.54 3.54 0 0 1 .9 1.6 7.32 7.32 0 0 1 .3 2.2 17.66 17.66 0 0 1-.4 2zM147.4 11.5a6 6 0 0 0-2.1-1.4 8.12 8.12 0 0 0-4.1-.4 5.73 5.73 0 0 0-1.4.4 7.46 7.46 0 0 0-1.2.7 10.63 10.63 0 0 0-.9 1.1h-.1V9.6H135v21.6h2.7v-7.6a6.6 6.6 0 0 0-.1-1.4h.1a3.13 3.13 0 0 0 .9 1.1 4.13 4.13 0 0 0 1.1.7 5 5 0 0 0 1.3.4 7.57 7.57 0 0 0 1.5.1 8.57 8.57 0 0 0 2.7-.5 8.55 8.55 0 0 0 2.2-1.5 9.74 9.74 0 0 0 1.5-2.4 9.86 9.86 0 0 0 0-6.2 7 7 0 0 0-1.5-2.4zm-1.2 7.6a4.61 4.61 0 0 1-.9 1.7 3.32 3.32 0 0 1-1.4 1 4.31 4.31 0 0 1-3.4.1 4.51 4.51 0 0 1-1.4-1 4.17 4.17 0 0 1-.9-1.6 7.8 7.8 0 0 1-.3-2.2v-.2a4.64 4.64 0 0 1 .4-2.1 3.77 3.77 0 0 1 .9-1.5 7.1 7.1 0 0 1 1.4-1 5 5 0 0 1 3.4 0 3.32 3.32 0 0 1 1.4 1 3.54 3.54 0 0 1 .9 1.6 7.32 7.32 0 0 1 .3 2.2 17.66 17.66 0 0 1-.4 2zM195.6 12.6h-11.2V3.4h-2.8v21.1h2.8v-9.4h11.2v9.4h2.8V3.4h-2.8v9.2zM211.6 17.1a7.11 7.11 0 0 1-.3 2.1 6 6 0 0 1-.8 1.6 3.05 3.05 0 0 1-1.3 1 4.19 4.19 0 0 1-1.6.4 5.9 5.9 0 0 1-1.4-.2 2.59 2.59 0 0 1-1.1-.7 4 4 0 0 1-.7-1.3 5.55 5.55 0 0 1-.2-1.9V9.6h-2.7v8.8a7.89 7.89 0 0 0 .4 2.8 5.16 5.16 0 0 0 1.2 1.9 4.25 4.25 0 0 0 1.7 1 7.61 7.61 0 0 0 2.1.3 6.8 6.8 0 0 0 1.5-.2 5 5 0 0 0 1.3-.5 3.92 3.92 0 0 0 1-.8 10.47 10.47 0 0 0 .8-1.1h.1v2.5h2.6V9.6h-2.7v7.5zM230.2 11.5a6 6 0 0 0-2.1-1.4 8.12 8.12 0 0 0-4.1-.4 5.73 5.73 0 0 0-1.4.4l-1.2.6-.9.9h-.1a7.08 7.08 0 0 1 .1-1.4V2.1h-2.7v22.4h2.6v-2.7h.1a2.73 2.73 0 0 0 .9 1.2 4.44 4.44 0 0 0 1.1.8 5 5 0 0 0 1.3.5 7.72 7.72 0 0 0 1.5.2 8.57 8.57 0 0 0 2.7-.5 8.55 8.55 0 0 0 2.2-1.5 9.74 9.74 0 0 0 1.5-2.4 9.86 9.86 0 0 0 0-6.2 9 9 0 0 0-1.5-2.4zm-1.3 7.6a4.61 4.61 0 0 1-.9 1.7 3.32 3.32 0 0 1-1.4 1 4.31 4.31 0 0 1-3.4.1 4.51 4.51 0 0 1-1.4-1 4.17 4.17 0 0 1-.9-1.6 7.8 7.8 0 0 1-.3-2.2v-.2a4.64 4.64 0 0 1 .4-2.1 3.77 3.77 0 0 1 .9-1.5 7.1 7.1 0 0 1 1.4-1 5 5 0 0 1 3.4 0 3.32 3.32 0 0 1 1.4 1 4.17 4.17 0 0 1 .9 1.6 7.32 7.32 0 0 1 .3 2.2 6.47 6.47 0 0 1-.4 2zM242.6 9.6a.9.9 0 0 1-.5-.1h-.5a5.07 5.07 0 0 0-1.3.2 3.7 3.7 0 0 0-1.1.5 6.47 6.47 0 0 0-.9.8 4.13 4.13 0 0 0-.7 1.1h-.1V9.6H235v14.9h2.7v-7.6a11 11 0 0 1 .2-1.8 3.39 3.39 0 0 1 .6-1.5 3.18 3.18 0 0 1 1-1 2.3 2.3 0 0 1 1.4-.4h.4c.2 0 .3.1.4.1a1.69 1.69 0 0 1 .5.2c.2.1.3.1.5.2l.9-2.8c-.2-.1-.4-.1-.5-.2a4.33 4.33 0 0 1-.5-.1zM255.6 10.9a5.44 5.44 0 0 0-1.8-1.1 9.47 9.47 0 0 0-2.6-.4 6.9 6.9 0 0 0-2.5.4 5.73 5.73 0 0 0-1.9 1 4.43 4.43 0 0 0-1.2 1.5 5.92 5.92 0 0 0-.5 1.9h2.6a2.28 2.28 0 0 1 .3-1.1 2.7 2.7 0 0 1 .7-.8 2.81 2.81 0 0 1 1.1-.5 5 5 0 0 1 2.8 0 2.07 2.07 0 0 1 1 .6 2.36 2.36 0 0 1 .6.9 4.3 4.3 0 0 1 .2 1.2c0 .2 0 .3-.1.4l-.3.3c-.1.1-.3.1-.6.2a8.66 8.66 0 0 1-1 .2l-2.9.5a6.39 6.39 0 0 0-2.2.6 5.43 5.43 0 0 0-1.5.9 4.7 4.7 0 0 0-.9 1.2 4.15 4.15 0 0 0-.3 1.6 4.67 4.67 0 0 0 .3 1.7 3.05 3.05 0 0 0 1 1.3 4 4 0 0 0 1.6.8 6.65 6.65 0 0 0 2.1.3 6.8 6.8 0 0 0 1.5-.2 5 5 0 0 0 1.3-.4 4.13 4.13 0 0 0 1.1-.7 3.92 3.92 0 0 0 .8-1h.1v2.3h2.6v-9.6a5.87 5.87 0 0 0-.4-2.3 3.35 3.35 0 0 0-1-1.7zm-1.2 7.3a4.84 4.84 0 0 1-.3 1.8 3 3 0 0 1-.9 1.3 3.22 3.22 0 0 1-1.4.8 4.67 4.67 0 0 1-1.7.3 4.12 4.12 0 0 1-1.2-.1 1.88 1.88 0 0 1-.9-.4 1.79 1.79 0 0 1-.5-.7 1.7 1.7 0 0 1 0-1.6 3 3 0 0 1 .5-.7 2.18 2.18 0 0 1 .8-.5 10.38 10.38 0 0 1 1.2-.3l2.8-.5a4.33 4.33 0 0 0 .5-.1c.2 0 .3-.1.4-.1s.2-.1.4-.2.2-.2.3-.2v1.2zM263.2 13.3a3.81 3.81 0 0 1 1.4-1.1 4.71 4.71 0 0 1 1.7-.4 6.05 6.05 0 0 1 1.5.2 2.38 2.38 0 0 1 1.1.6 2.76 2.76 0 0 1 .7.9 3.58 3.58 0 0 1 .4 1.1h2.7a8.3 8.3 0 0 0-.6-2.1 7 7 0 0 0-1.3-1.7 5.47 5.47 0 0 0-2-1.1 7.1 7.1 0 0 0-2.6-.4 8.68 8.68 0 0 0-2.8.5 9.13 9.13 0 0 0-2.3 1.5 9.74 9.74 0 0 0-1.5 2.4 7.49 7.49 0 0 0-.5 3.1 10.07 10.07 0 0 0 .5 3.1 7.22 7.22 0 0 0 1.4 2.4 5.41 5.41 0 0 0 2.2 1.5 7.1 7.1 0 0 0 2.9.5 7.46 7.46 0 0 0 2.6-.4 6.44 6.44 0 0 0 2-1.1 5.5 5.5 0 0 0 1.3-1.7 6.46 6.46 0 0 0 .6-2.1H270a3.58 3.58 0 0 1-.4 1.1 5.5 5.5 0 0 1-.7.9 2.38 2.38 0 0 1-1.1.6 6.05 6.05 0 0 1-1.5.2 3.29 3.29 0 0 1-1.7-.4 3.6 3.6 0 0 1-1.4-1.1 5.07 5.07 0 0 1-.9-1.6 6.65 6.65 0 0 1-.3-2.1 6.65 6.65 0 0 1 .3-2.1c.2-.2.5-.8.9-1.2zM287.6 12.8a5.16 5.16 0 0 0-1.2-1.9 4.25 4.25 0 0 0-1.7-1 7.61 7.61 0 0 0-2.1-.3 6.8 6.8 0 0 0-1.5.2 5 5 0 0 0-1.3.5 7.63 7.63 0 0 0-1.1.8 4.44 4.44 0 0 0-.8 1.1h-.1a8.08 8.08 0 0 1 .1-1.5V2.1h-2.7v22.4h2.7v-7.6a7.11 7.11 0 0 1 .3-2.1 4.17 4.17 0 0 1 .9-1.6 3.51 3.51 0 0 1 2.9-1.3 5.9 5.9 0 0 1 1.4.2 2.59 2.59 0 0 1 1.1.7 4 4 0 0 1 .7 1.3 5.55 5.55 0 0 1 .2 1.9v8.5h2.7v-8.8a10.85 10.85 0 0 0-.5-2.9z"></path></svg>