<?xml version="1.0" encoding="UTF-8" standalone="no"?>
<!-- Created with Inkscape (http://www.inkscape.org/) -->

<svg
   xmlns:dc="http://purl.org/dc/elements/1.1/"
   xmlns:cc="http://creativecommons.org/ns#"
   xmlns:rdf="http://www.w3.org/1999/02/22-rdf-syntax-ns#"
   xmlns:svg="http://www.w3.org/2000/svg"
   xmlns="http://www.w3.org/2000/svg"
   xmlns:sodipodi="http://sodipodi.sourceforge.net/DTD/sodipodi-0.dtd"
   xmlns:inkscape="http://www.inkscape.org/namespaces/inkscape"
   width="500"
   height="500"
   viewBox="0 0 132.29166 132.29167"
   version="1.1"
   id="svg8"
   inkscape:version="0.92.4 (5da689c313, 2019-01-14)"
   sodipodi:docname="FabInfra_Logo.svg">
  <defs
     id="defs2" />
  <sodipodi:namedview
     id="base"
     pagecolor="#ffffff"
     bordercolor="#666666"
     borderopacity="1.0"
     inkscape:pageopacity="0"
     inkscape:pageshadow="2"
     inkscape:zoom="1.6130873"
     inkscape:cx="62.471555"
     inkscape:cy="181.37363"
     inkscape:document-units="mm"
     inkscape:current-layer="layer1"
     showgrid="false"
     units="px"
     inkscape:window-width="2560"
     inkscape:window-height="1330"
     inkscape:window-x="-12"
     inkscape:window-y="-12"
     inkscape:window-maximized="1" />
  <metadata
     id="metadata5">
    <rdf:RDF>
      <cc:Work
         rdf:about="">
        <dc:format>image/svg+xml</dc:format>
        <dc:type
           rdf:resource="http://purl.org/dc/dcmitype/StillImage" />
        <dc:title />
      </cc:Work>
    </rdf:RDF>
  </metadata>
  <g
     inkscape:label="Ebene 1"
     inkscape:groupmode="layer"
     id="layer1"
     transform="translate(0,-164.70832)">
    <path
       style="fill:#00d4aa;fill-opacity:1;stroke-width:0.85979867"
       d="m 88.943529,178.85243 a 55.000196,55.000196 0 0 0 -6.346684,-2.1686 l -9.53908,10.40318 a 42.77793,42.77793 0 0 0 -10.411409,-0.0362 l -9.454913,-10.63831 a 55.000196,55.000196 0 0 0 -12.363052,5.05934 l 0.6104,14.13929 a 42.77793,42.77793 0 0 0 -7.397196,7.30446 L 19.874887,202.0809 a 55.000196,55.000196 0 0 0 -3.022443,5.97556 55.000196,55.000196 0 0 0 -2.168585,6.34669 l 10.40202,9.53858 a 42.77793,42.77793 0 0 0 -0.03509,10.4119 l -10.638316,9.45494 a 55.000196,55.000196 0 0 0 5.059349,12.36302 l 14.138116,-0.61088 a 42.77793,42.77793 0 0 0 7.305644,7.39769 l -0.834687,14.16669 a 55.000196,55.000196 0 0 0 5.975575,3.02246 55.000196,55.000196 0 0 0 6.346705,2.16856 l 9.538567,-10.40198 a 42.77793,42.77793 0 0 0 10.411895,0.0351 l 9.454932,10.63829 a 55.000196,55.000196 0 0 0 12.363034,-5.05933 l -0.612051,-14.13863 a 42.77793,42.77793 0 0 0 7.398852,-7.30513 l 14.16554,0.83419 a 55.000196,55.000196 0 0 0 3.02362,-5.97509 55.000196,55.000196 0 0 0 2.16857,-6.34669 l -10.40269,-9.54022 a 42.77793,42.77793 0 0 0 0.0358,-10.41028 l 10.63832,-9.45493 a 55.000196,55.000196 0 0 0 -5.061,-12.36236 l -14.13697,0.6114 a 42.77793,42.77793 0 0 0 -7.305149,-7.39885 l 0.834212,-14.16556 a 55.000196,55.000196 0 0 0 -5.975094,-3.0236 z m -9.530402,22.50989 a 30.555667,30.555667 0 0 1 16.224537,40.0508 30.555667,30.555667 0 0 1 -40.0508,16.22454 30.555667,30.555667 0 0 1 -16.224525,-40.0508 30.555667,30.555667 0 0 1 40.050788,-16.22454 z"
       id="path48"
       inkscape:connector-curvature="0" />
    <g
       id="g874"
       transform="matrix(0.37795276,0,0,0.38237202,42.5,203.97382)">
      <g
         transform="translate(0,-67.708342)"
         inkscape:label="Ebene 0"
         id="layer2" />
      <g
         style="display:inline"
         transform="translate(0,-164.70834)"
         id="layer1-1"
         inkscape:label="Ebene 1">
        <path
           inkscape:connector-curvature="0"
           d=""
           style="fill:none;fill-opacity:1;stroke:#ff0000;stroke-width:4.81531763;stroke-linecap:round;stroke-linejoin:round;stroke-miterlimit:4;stroke-dasharray:none;stroke-dashoffset:0;stroke-opacity:1;paint-order:normal"
           id="path4731"
           ry="7.5"
           rx="40"
           cy="137"
           cx="90" />
        <path
           inkscape:connector-curvature="0"
           d=""
           style="fill:#808000;fill-opacity:1;stroke:none;stroke-width:0.60454923;stroke-miterlimit:4;stroke-dasharray:1.8136478, 0.60454927;stroke-dashoffset:0;stroke-opacity:1"
           id="path4810"
           r="10"
           cy="137"
           cx="50" />
        <g
           transform="translate(-9.9998126,31.617937)"
           id="g5017">
          <g
             transform="matrix(0.75595109,0,0,0.75595074,8.11017,59.096536)"
             id="g4850">
            <path
               inkscape:connector-curvature="0"
               id="path10"
               transform="matrix(0.26458333,0,0,0.26458333,9.9998126,105.38206)"
               d="M 151.18164,43.910156 A 113.38583,113.38582 0 0 0 37.794922,157.29688 113.38583,113.38582 0 0 0 113.38672,264.07031 V 535.25 l 30.23047,31.67969 45.35937,-31.67969 v -26.84766 l -11.33789,-29.22656 11.33789,-12.56445 v -33.31836 l -26.45703,-37.90625 26.45703,-25.2207 V 357.2207 l -11.33789,-29.22656 11.33789,-12.56445 v -51.37696 a 113.38583,113.38582 0 0 0 75.58985,-106.75585 113.38583,113.38582 0 0 0 -0.0625,-1.23243 c -33.8533,-1.58791 -63.87791,-5.29175 -85.69727,-10.83789 a 37.795276,37.795276 0 0 1 -27.625,12.07032 37.795276,37.795276 0 0 1 -37.79492,-37.79493 37.795276,37.795276 0 0 1 37.79492,-37.794919 37.795276,37.795276 0 0 1 37.79492,37.794919 37.795276,37.795276 0 0 1 -1.16992,9.14063 c 18.94418,4.26853 45.32423,7.5204 74.94531,9.07812 A 113.38583,113.38582 0 0 0 151.18164,43.910156 Z M 132.2832,289.58008 h 18.89844 V 516.35156 H 132.2832 Z"
               style="fill:#00d4aa;fill-opacity:1;stroke:none;stroke-width:1.06180704;stroke-miterlimit:4;stroke-dasharray:3.18542154, 1.06180724;stroke-dashoffset:0;stroke-opacity:1" />
          </g>
          <g
             transform="matrix(0.75595109,0,0,0.75595074,8.11017,59.096536)"
             id="g4835">
            <path
               inkscape:connector-curvature="0"
               id="rect4534"
               transform="matrix(0.26458333,0,0,0.26458333,9.9998126,105.38206)"
               d="M 453.54297,43.910156 A 113.38583,113.38583 0 0 0 341.875,137.73047 c 29.79282,-1.56256 56.20979,-4.89099 75.02734,-9.11133 a 37.795276,37.795276 0 0 1 -1.15429,-9.11719 37.795276,37.795276 0 0 1 37.79492,-37.794919 37.795276,37.795276 0 0 1 37.79687,37.794919 37.795276,37.795276 0 0 1 -37.79687,37.79493 37.795276,37.795276 0 0 1 -27.61328,-12.03126 c -21.70666,5.54313 -51.57227,9.18175 -85.72852,10.78907 a 113.38583,113.38583 0 0 0 -0.043,1.24219 V 384.06836 H 566.92969 V 157.29688 A 113.38583,113.38583 0 0 0 453.54297,43.910156 Z M 370.39453,176.19336 h 166.29883 c 6.28157,0 11.33789,5.05827 11.33789,11.33984 v 166.29883 c 0,6.28158 -5.05632,11.33789 -11.33789,11.33789 H 370.39453 c -6.28154,0 -11.33984,-5.05631 -11.33984,-11.33789 V 187.5332 c 0,-6.28157 5.0583,-11.33984 11.33984,-11.33984 z"
               style="fill:#00d4aa;fill-opacity:0.96486487;stroke:none;stroke-width:1.60926509;stroke-miterlimit:4;stroke-dasharray:4.82779563, 1.6092652;stroke-dashoffset:0;stroke-opacity:1" />
            <path
               inkscape:connector-curvature="0"
               style="fill:none;fill-opacity:1;stroke:#00d4aa;stroke-width:5;stroke-linecap:round;stroke-miterlimit:4;stroke-dasharray:none;stroke-dashoffset:0;stroke-opacity:1;paint-order:normal"
               d="m 114.0901,173.5901 a 22.5,22.5 0 0 1 31.8198,0"
               id="circle4715" />
            <path
               inkscape:connector-curvature="0"
               style="fill:none;fill-opacity:1;stroke:#00d4aa;stroke-width:5;stroke-linecap:round;stroke-miterlimit:4;stroke-dasharray:none;stroke-dashoffset:0;stroke-opacity:1"
               d="m 119.3934,178.8934 a 15,15 0 0 1 21.2132,0"
               id="circle4713" />
            <path
               inkscape:connector-curvature="0"
               style="fill:none;fill-opacity:1;stroke:#00d4aa;stroke-width:5;stroke-linecap:round;stroke-miterlimit:4;stroke-dasharray:none;stroke-dashoffset:0;stroke-opacity:1"
               d="m 124.6967,184.1967 a 7.5,7.5 0 0 1 10.6066,0"
               id="circle4711" />
            <path
               inkscape:connector-curvature="0"
               style="fill:#00d4aa;fill-opacity:1;stroke:none;stroke-width:0.22627418;stroke-miterlimit:4;stroke-dasharray:0.67882256, 0.22627419;stroke-dashoffset:0;stroke-opacity:1"
               d="m 132.5,189.5 a 2.5,2.5 0 0 1 -2.5,2.5 2.5,2.5 0 0 1 -2.5,-2.5 2.5,2.5 0 0 1 2.5,-2.5 2.5,2.5 0 0 1 2.5,2.5 z"
               id="path4614" />
          </g>
          <path
             inkscape:connector-curvature="0"
             style="color:#000000;font-style:normal;font-variant:normal;font-weight:normal;font-stretch:normal;font-size:medium;line-height:normal;font-family:sans-serif;font-variant-ligatures:normal;font-variant-position:normal;font-variant-caps:normal;font-variant-numeric:normal;font-variant-alternates:normal;font-feature-settings:normal;text-indent:0;text-align:start;text-decoration:none;text-decoration-line:none;text-decoration-style:solid;text-decoration-color:#000000;letter-spacing:normal;word-spacing:normal;text-transform:none;writing-mode:lr-tb;direction:ltr;text-orientation:mixed;dominant-baseline:auto;baseline-shift:baseline;text-anchor:start;white-space:normal;shape-padding:0;clip-rule:nonzero;display:inline;overflow:visible;visibility:visible;opacity:1;isolation:auto;mix-blend-mode:normal;color-interpolation:sRGB;color-interpolation-filters:linearRGB;solid-color:#000000;solid-opacity:1;vector-effect:none;fill:#00d4aa;fill-opacity:1;fill-rule:nonzero;stroke:none;stroke-width:3.64014435;stroke-linecap:round;stroke-linejoin:round;stroke-miterlimit:4;stroke-dasharray:none;stroke-dashoffset:0;stroke-opacity:1;paint-order:normal;color-rendering:auto;image-rendering:auto;shape-rendering:auto;text-rendering:auto;enable-background:accumulate"
             d="m 75.611115,155.1716 c -3.407252,0.0112 -6.801913,0.13161 -10.050999,0.35667 a 24.568411,24.5684 0 0 1 2.198961,3.50997 c 5.4669,-0.29916 11.303302,-0.2991 16.783044,0.002 a 24.568411,24.5684 0 0 1 2.17591,-3.51311 c -3.590545,-0.24816 -7.35393,-0.367 -11.106916,-0.3547 z"
             id="path4717" />
          <path
             inkscape:connector-curvature="0"
             style="color:#000000;font-style:normal;font-variant:normal;font-weight:normal;font-stretch:normal;font-size:medium;line-height:normal;font-family:sans-serif;font-variant-ligatures:normal;font-variant-position:normal;font-variant-caps:normal;font-variant-numeric:normal;font-variant-alternates:normal;font-feature-settings:normal;text-indent:0;text-align:start;text-decoration:none;text-decoration-line:none;text-decoration-style:solid;text-decoration-color:#000000;letter-spacing:normal;word-spacing:normal;text-transform:none;writing-mode:lr-tb;direction:ltr;text-orientation:mixed;dominant-baseline:auto;baseline-shift:baseline;text-anchor:start;white-space:normal;shape-padding:0;clip-rule:nonzero;display:inline;overflow:visible;visibility:visible;opacity:1;isolation:auto;mix-blend-mode:normal;color-interpolation:sRGB;color-interpolation-filters:linearRGB;solid-color:#000000;solid-opacity:1;vector-effect:none;fill:#00d4aa;fill-opacity:1;fill-rule:nonzero;stroke:none;stroke-width:3.63990474;stroke-linecap:butt;stroke-linejoin:round;stroke-miterlimit:4;stroke-dasharray:none;stroke-dashoffset:0;stroke-opacity:1;paint-order:normal;color-rendering:auto;image-rendering:auto;shape-rendering:auto;text-rendering:auto;enable-background:accumulate"
             d="m 102.97839,158.12139 c -1.02665,0.76962 -1.77996,1.88093 -2.09739,3.16816 1.58258,0.45067 2.71371,0.93517 3.29551,1.30593 0.0542,0.0346 0.0325,0.0246 0.0738,0.0532 -0.0878,0.0687 -0.097,0.098 -0.25978,0.19181 -0.62267,0.35872 -1.67941,0.78639 -3.10956,1.19461 0.3175,1.28641 1.07069,2.39681 2.0966,3.1662 1.10812,-0.3621 2.04545,-0.75497 2.83025,-1.2071 1.17815,-0.67872 2.27175,-1.58889 2.38765,-3.11386 0.11592,-1.52498 -0.94215,-2.64046 -2.06262,-3.3545 -0.85033,-0.54188 -1.88749,-0.99186 -3.15448,-1.40439 z"
             id="path4904" />
          <path
             inkscape:connector-curvature="0"
             style="color:#000000;font-style:normal;font-variant:normal;font-weight:normal;font-stretch:normal;font-size:medium;line-height:normal;font-family:sans-serif;font-variant-ligatures:normal;font-variant-position:normal;font-variant-caps:normal;font-variant-numeric:normal;font-variant-alternates:normal;font-feature-settings:normal;text-indent:0;text-align:start;text-decoration:none;text-decoration-line:none;text-decoration-style:solid;text-decoration-color:#000000;letter-spacing:normal;word-spacing:normal;text-transform:none;writing-mode:lr-tb;direction:ltr;text-orientation:mixed;dominant-baseline:auto;baseline-shift:baseline;text-anchor:start;white-space:normal;shape-padding:0;clip-rule:nonzero;display:inline;overflow:visible;visibility:visible;opacity:1;isolation:auto;mix-blend-mode:normal;color-interpolation:sRGB;color-interpolation-filters:linearRGB;solid-color:#000000;solid-opacity:1;vector-effect:none;fill:#00d4aa;fill-opacity:1;fill-rule:nonzero;stroke:none;stroke-width:3.64014435;stroke-linecap:round;stroke-linejoin:round;stroke-miterlimit:4;stroke-dasharray:none;stroke-dashoffset:0;stroke-opacity:1;paint-order:normal;color-rendering:auto;image-rendering:auto;shape-rendering:auto;text-rendering:auto;enable-background:accumulate"
             d="m 82.143148,166.39454 c -3.957986,0.15171 -8.042532,0.15388 -11.996427,0.002 a 24.568411,24.5684 0 0 1 0.316817,3.65373 c 3.756554,0.13343 7.608678,0.13068 11.368653,-0.003 a 24.568411,24.5684 0 0 1 0.310957,-3.65335 z"
             id="path4911" />
          <path
             inkscape:connector-curvature="0"
             style="color:#000000;font-style:normal;font-variant:normal;font-weight:normal;font-stretch:normal;font-size:medium;line-height:normal;font-family:sans-serif;font-variant-ligatures:normal;font-variant-position:normal;font-variant-caps:normal;font-variant-numeric:normal;font-variant-alternates:normal;font-feature-settings:normal;text-indent:0;text-align:start;text-decoration:none;text-decoration-line:none;text-decoration-style:solid;text-decoration-color:#000000;letter-spacing:normal;word-spacing:normal;text-transform:none;writing-mode:lr-tb;direction:ltr;text-orientation:mixed;dominant-baseline:auto;baseline-shift:baseline;text-anchor:start;white-space:normal;shape-padding:0;clip-rule:nonzero;display:inline;overflow:visible;visibility:visible;opacity:1;isolation:auto;mix-blend-mode:normal;color-interpolation:sRGB;color-interpolation-filters:linearRGB;solid-color:#000000;solid-opacity:1;vector-effect:none;fill:#00d4aa;fill-opacity:1;fill-rule:nonzero;stroke:none;stroke-width:3.63990474;stroke-linecap:butt;stroke-linejoin:round;stroke-miterlimit:4;stroke-dasharray:none;stroke-dashoffset:0;stroke-opacity:1;paint-order:normal;color-rendering:auto;image-rendering:auto;shape-rendering:auto;text-rendering:auto;enable-background:accumulate"
             d="m 49.311871,158.12061 c -1.097474,0.35832 -2.025074,0.74816 -2.804855,1.19421 -1.23221,0.70485 -2.384838,1.69118 -2.418115,3.28652 -0.03327,1.59534 1.11277,2.64039 2.328266,3.3545 0.798208,0.46896 1.756288,0.87402 2.895876,1.24618 1.026786,-0.76972 1.780413,-1.88111 2.097783,-3.16856 -1.461618,-0.41769 -2.535195,-0.85471 -3.15097,-1.21648 -0.141116,-0.0829 -0.130676,-0.0921 -0.209779,-0.15079 0.08943,-0.0687 0.09318,-0.0938 0.26447,-0.19181 0.623732,-0.35678 1.678451,-0.77817 3.096279,-1.18327 -0.317335,-1.28836 -1.071319,-2.40054 -2.098955,-3.1705 z"
             id="path4981" />
        </g>
      </g>
    </g>
  </g>
</svg>
