<?xml version="1.0" standalone="no"?>
<!DOCTYPE svg PUBLIC "-//W3C//DTD SVG 20010904//EN"
 "http://www.w3.org/TR/2001/REC-SVG-20010904/DTD/svg10.dtd">
<svg version="1.0" xmlns="http://www.w3.org/2000/svg"
 width="524.000000pt" height="524.000000pt" viewBox="0 0 524.000000 524.000000"
 preserveAspectRatio="xMidYMid meet">
<metadata>
Created by potrace 1.11, written by Peter Selinger 2001-2013
</metadata>
<g transform="translate(0.000000,524.000000) scale(0.100000,-0.100000)"
fill="#000000" stroke="none">
<path d="M1335 4195 c-305 -56 -586 -230 -812 -501 -111 -133 -208 -279 -275
-412 -45 -87 -53 -113 -56 -170 -6 -111 40 -192 136 -239 79 -39 157 -38 231
2 66 37 92 67 146 175 96 192 270 405 411 506 355 253 800 163 1244 -251 181
-169 349 -289 536 -383 515 -259 1022 -214 1446 127 188 151 379 396 503 643
50 100 55 116 55 176 0 82 -25 137 -86 191 -81 71 -210 81 -302 24 -48 -29
-60 -47 -152 -215 -148 -271 -365 -480 -581 -559 -100 -37 -256 -50 -361 -30
-222 42 -458 171 -668 366 -297 276 -559 435 -848 516 -173 49 -411 63 -567
34z"/>
<path d="M4418 2475 c-8 -8 -305 -23 -698 -35 -1347 -40 -1828 -76 -2477 -184
-181 -30 -385 -64 -455 -75 -231 -37 -625 -144 -659 -179 -27 -28 -100 -377
-106 -507 -7 -148 -9 -146 140 -116 62 13 156 38 210 56 85 29 99 31 104 18 3
-9 -4 -71 -15 -138 -26 -146 -28 -225 -6 -289 24 -70 19 -70 194 -6 171 63
218 71 1095 194 544 76 934 118 1260 136 110 6 281 16 380 23 122 8 402 11
873 9 l692 -2 37 57 c50 77 101 198 157 370 41 126 46 152 46 231 0 64 -4 93
-14 101 -10 8 -43 7 -132 -4 -66 -9 -150 -20 -189 -25 -114 -15 -221 -13 -239
6 -19 19 -19 36 -1 139 20 111 19 168 -3 188 -29 26 -175 50 -194 32z m-24
-435 c9 -137 19 -301 23 -365 l6 -115 -26 0 c-15 0 -27 1 -27 3 0 1 -11 164
-25 362 -14 198 -25 361 -25 363 0 1 13 2 28 2 l28 0 18 -250z m-214 233 c0
-5 7 -98 15 -208 18 -249 18 -245 0 -245 -10 0 -15 10 -15 28 0 33 -17 282
-26 370 -5 52 -3 62 10 62 9 0 16 -3 16 -7z m-180 -22 c0 -30 19 -320 25 -383
5 -48 3 -58 -10 -58 -8 0 -15 3 -15 8 0 4 -7 102 -15 217 -18 257 -18 235 0
235 8 0 15 -9 15 -19z m-171 -203 c6 -112 14 -213 17 -225 3 -16 0 -23 -10
-23 -18 0 -22 28 -36 238 -13 198 -13 212 3 212 11 0 16 -47 26 -202z m-195
160 c6 -42 26 -330 26 -381 0 -27 -4 -37 -12 -35 -18 6 -48 448 -31 448 7 0
14 -15 17 -32z m-174 -10 c0 -18 7 -125 15 -238 20 -272 19 -280 -3 -280 -17
0 -20 17 -31 188 -7 103 -15 226 -18 275 -6 84 -5 87 16 87 17 0 21 -6 21 -32z
m-190 -5 c0 -16 7 -111 15 -213 18 -230 18 -220 0 -220 -9 0 -15 9 -15 23 0
12 -7 111 -15 220 -8 109 -13 203 -10 208 12 18 25 8 25 -18z m-180 -25 c0
-38 17 -289 25 -365 4 -42 2 -53 -9 -53 -16 0 -19 26 -36 265 -13 182 -13 185
5 185 10 0 15 -10 15 -32z m-169 -203 c11 -174 11 -225 2 -225 -16 0 -20 31
-33 225 -13 207 -13 225 3 225 10 0 17 -53 28 -225z m-197 173 c15 -124 27
-401 17 -411 -7 -7 -12 -6 -15 4 -7 20 -32 439 -27 445 12 12 20 0 25 -38z
m-170 0 c5 -33 46 -634 46 -675 0 -18 -6 -23 -25 -23 -20 0 -25 6 -29 33 -11
68 -47 677 -41 687 3 5 15 10 25 10 14 0 21 -9 24 -32z m-194 -15 c0 -35 18
-287 25 -365 5 -48 3 -58 -10 -58 -8 0 -15 3 -15 8 0 4 -7 97 -15 207 -18 245
-18 235 0 235 10 0 15 -10 15 -27z m-169 -208 c11 -177 11 -225 2 -225 -17 0
-20 20 -32 220 -14 221 -14 230 2 230 10 0 17 -53 28 -225z m-197 178 c3 -21
10 -118 17 -215 11 -166 9 -221 -9 -204 -8 8 -40 445 -33 452 12 11 20 0 25
-33z m-184 20 c0 -5 7 -98 15 -208 18 -248 18 -245 0 -245 -11 0 -15 11 -15
38 -1 20 -7 120 -14 222 -8 102 -12 188 -9 193 2 4 8 7 14 7 5 0 9 -3 9 -7z
m-160 -233 c6 -102 14 -215 17 -252 6 -65 5 -68 -16 -68 -11 0 -21 6 -21 13 0
21 -30 451 -34 489 -3 28 0 38 13 40 24 5 28 -18 41 -222z m-191 8 c7 -112 14
-213 17 -225 3 -16 0 -23 -10 -23 -18 0 -22 27 -36 245 -13 202 -13 205 4 205
10 0 16 -45 25 -202z m-195 170 c5 -24 26 -353 26 -400 0 -16 -5 -28 -13 -28
-10 0 -16 46 -25 193 -7 105 -12 207 -12 225 0 36 17 44 24 10z m-180 -45 c13
-129 28 -394 23 -399 -17 -18 -25 24 -36 193 -7 103 -14 205 -17 226 -5 28 -2
37 9 37 11 0 17 -16 21 -57z m-184 25 c0 -7 7 -105 15 -218 8 -113 15 -208 15
-212 0 -5 -7 -8 -15 -8 -8 0 -15 8 -15 18 0 22 -18 275 -25 365 -5 56 -4 67 9
67 9 0 16 -6 16 -12z m-170 0 c0 -2 11 -163 24 -358 25 -369 25 -369 -16 -370
-13 0 -18 8 -18 28 0 15 -9 158 -20 317 -11 160 -20 311 -20 338 0 44 2 47 25
47 14 0 25 -1 25 -2z"/>
</g>
</svg>
